<?xml version="1.0" encoding="UTF-8" standalone="no"?>
<!-- Generator: Adobe Illustrator 12.0.0, SVG Export Plug-In . SVG Version: 6.00 Build 51448)  -->

<svg
   xmlns:dc="http://purl.org/dc/elements/1.1/"
   xmlns:cc="http://creativecommons.org/ns#"
   xmlns:rdf="http://www.w3.org/1999/02/22-rdf-syntax-ns#"
   xmlns:svg="http://www.w3.org/2000/svg"
   xmlns="http://www.w3.org/2000/svg"
   xmlns:xlink="http://www.w3.org/1999/xlink"
   xmlns:sodipodi="http://sodipodi.sourceforge.net/DTD/sodipodi-0.dtd"
   xmlns:inkscape="http://www.inkscape.org/namespaces/inkscape"
   version="1.0"
   id="barcamp_logo"
   width="135"
   height="135"
   viewBox="0 0 1000 300"
   overflow="visible"
   enable-background="new 0 0 1000 300"
   xml:space="preserve"
   sodipodi:version="0.32"
   inkscape:version="0.47 r22583"
   sodipodi:docname="collage-20100616.svg"
   inkscape:output_extension="org.inkscape.output.svg.inkscape"
   style="overflow:visible"
   inkscape:export-filename="/home/eviljoel/Desktop/BARcamp Chicago 2010/barcampChicago-wikiLogo-20100517.png"
   inkscape:export-xdpi="90"
   inkscape:export-ydpi="90"><metadata
   id="metadata46"><rdf:RDF><cc:Work
       rdf:about=""><dc:format>image/svg+xml</dc:format><dc:type
         rdf:resource="http://purl.org/dc/dcmitype/StillImage" /></cc:Work></rdf:RDF></metadata><defs
   id="defs44"><inkscape:perspective
   sodipodi:type="inkscape:persp3d"
   inkscape:vp_x="0 : 150 : 1"
   inkscape:vp_y="0 : 1000 : 0"
   inkscape:vp_z="1000 : 150 : 1"
   inkscape:persp3d-origin="500 : 100 : 1"
   id="perspective48" /><inkscape:perspective
   id="perspective2533"
   inkscape:persp3d-origin="372.04724 : 350.78739 : 1"
   inkscape:vp_z="744.09448 : 526.18109 : 1"
   inkscape:vp_y="0 : 1000 : 0"
   inkscape:vp_x="0 : 526.18109 : 1"
   sodipodi:type="inkscape:persp3d" />
	
	
	
<inkscape:perspective
   id="perspective2928"
   inkscape:persp3d-origin="0.5 : 0.33333333 : 1"
   inkscape:vp_z="1 : 0.5 : 1"
   inkscape:vp_y="0 : 1000 : 0"
   inkscape:vp_x="0 : 0.5 : 1"
   sodipodi:type="inkscape:persp3d" /><pattern
   patternUnits="userSpaceOnUse"
   width="399.99999"
   height="299.99999"
   patternTransform="matrix(7.4074074,0,0,7.4074074,1587.4006,-976.21283)"
   id="pattern3706"><image
     xlink:href="file:///home/eviljoel/Desktop/BARcamp%20Chicago%202010/Collage/test2.png"
     width="400"
     height="300"
     id="image2930"
     x="0"
     y="2.8421709e-14" /></pattern></defs><sodipodi:namedview
   inkscape:window-height="822"
   inkscape:window-width="1432"
   inkscape:pageshadow="2"
   inkscape:pageopacity="1"
   guidetolerance="10.0"
   gridtolerance="10.0"
   objecttolerance="10.0"
   borderopacity="1.0"
   bordercolor="#666666"
   pagecolor="#ffffff"
   id="base"
   showgrid="false"
   inkscape:zoom="1"
   inkscape:cx="374.89392"
   inkscape:cy="102.10771"
   inkscape:window-x="0"
   inkscape:window-y="25"
   inkscape:current-layer="g25"
   inkscape:window-maximized="0" />
<g
   id="g2420"
   transform="matrix(1.5684743,0,0,1.5684743,-493.7468,284.37149)"><g
     id="g5">
		<path
   d="M 335.07,91.71 L 335.07,131.7 C 338.726,128.079 342.679,125.362 346.929,123.552 C 351.179,121.742 355.724,120.835 360.568,120.835 C 371.093,120.835 380.037,124.812 387.4,132.763 C 394.763,140.714 398.445,150.912 398.445,163.358 C 398.445,175.36 394.638,185.399 387.029,193.473 C 379.42,201.547 370.4,205.584 359.974,205.584 C 355.329,205.584 351.005,204.76 347.003,203.113 C 342.999,201.467 339.023,198.775 335.069,195.037 L 335.069,203.584 L 314.819,203.584 L 314.819,91.71 L 335.07,91.71 z M 356.307,139.335 C 349.948,139.335 344.672,141.517 340.481,145.88 C 336.29,150.242 334.196,155.945 334.196,162.986 C 334.196,170.177 336.29,175.99 340.481,180.427 C 344.672,184.864 349.948,187.083 356.307,187.083 C 362.469,187.083 367.659,184.827 371.873,180.315 C 376.087,175.803 378.195,170.051 378.195,163.059 C 378.195,156.118 376.123,150.426 371.982,145.99 C 367.842,141.554 362.615,139.335 356.307,139.335 z"
   id="path7"
   style="fill:#666666;fill-opacity:1" />
		<path
   d="M 468.475,122.835 L 488.725,122.835 L 488.725,203.584 L 468.475,203.584 L 468.475,195.037 C 464.516,198.775 460.545,201.467 456.563,203.113 C 452.581,204.759 448.264,205.584 443.616,205.584 C 433.177,205.584 424.147,201.547 416.528,193.473 C 408.909,185.399 405.1,175.36 405.1,163.358 C 405.1,150.913 408.786,140.714 416.157,132.763 C 423.528,124.812 432.483,120.835 443.022,120.835 C 447.87,120.835 452.42,121.739 456.674,123.546 C 460.928,125.353 464.862,128.062 468.475,131.675 L 468.475,122.835 L 468.475,122.835 z M 447.164,139.335 C 440.902,139.335 435.701,141.554 431.56,145.991 C 427.419,150.428 425.349,156.119 425.349,163.06 C 425.349,170.052 427.456,175.804 431.671,180.316 C 435.886,184.828 441.073,187.084 447.237,187.084 C 453.596,187.084 458.87,184.865 463.061,180.428 C 467.252,175.991 469.348,170.178 469.348,162.987 C 469.348,155.946 467.252,150.243 463.061,145.881 C 458.871,141.517 453.572,139.335 447.164,139.335 z"
   id="path9"
   style="fill:#666666;fill-opacity:1" />
		<path
   d="M 501.289,122.835 L 518.789,122.835 L 518.789,133.062 C 520.66,129.062 523.15,126.023 526.256,123.949 C 529.362,121.875 532.762,120.836 536.457,120.836 C 539.07,120.836 541.805,121.529 544.664,122.916 L 538.385,140.365 C 536.02,139.179 534.074,138.586 532.549,138.586 C 529.444,138.586 526.82,140.514 524.678,144.367 C 522.535,148.221 521.465,155.78 521.465,167.046 L 521.539,170.974 L 521.539,203.585 L 501.289,203.585 L 501.289,122.835 z"
   id="path11"
   style="fill:#666666;fill-opacity:1" />
		<path
   d="M 624.31,139.589 L 616.072,144.71 C 608.939,135.294 599.209,130.585 586.879,130.585 C 577.024,130.585 568.84,133.741 562.328,140.052 C 555.816,146.363 552.56,154.028 552.56,163.049 C 552.56,168.916 554.058,174.44 557.054,179.615 C 560.05,184.793 564.159,188.81 569.384,191.67 C 574.609,194.53 580.464,195.959 586.952,195.959 C 598.837,195.959 608.544,191.252 616.071,181.834 L 624.309,187.252 C 620.446,193.065 615.256,197.574 608.743,200.777 C 602.23,203.98 594.811,205.584 586.491,205.584 C 573.71,205.584 563.11,201.535 554.69,193.436 C 546.268,185.336 542.059,175.483 542.059,163.875 C 542.059,156.072 544.028,148.824 547.965,142.134 C 551.903,135.443 557.315,130.22 564.199,126.466 C 571.083,122.712 578.787,120.835 587.306,120.835 C 592.656,120.835 597.82,121.648 602.798,123.273 C 607.775,124.898 611.997,127.013 615.466,129.623 C 618.935,132.232 621.882,135.554 624.31,139.589 z"
   id="path13"
   style="fill:#989898;fill-opacity:1" />
		<path
   d="M 714.601,122.835 L 714.601,203.584 L 704.226,203.584 L 704.226,189.705 C 699.876,195 694.996,198.971 689.585,201.615 C 684.174,204.259 678.257,205.584 671.835,205.584 C 660.421,205.584 650.673,201.449 642.595,193.176 C 634.515,184.903 630.476,174.84 630.476,162.987 C 630.476,151.382 634.552,141.457 642.705,133.209 C 650.858,124.961 660.668,120.836 672.133,120.836 C 678.754,120.836 684.744,122.234 690.106,125.027 C 695.467,127.822 700.174,132.039 704.227,137.679 L 704.227,122.835 L 714.601,122.835 L 714.601,122.835 z M 672.95,130.835 C 667.177,130.835 661.846,132.253 656.962,135.087 C 652.078,137.921 648.192,141.9 645.306,147.025 C 642.419,152.149 640.976,157.571 640.976,163.286 C 640.976,168.954 642.431,174.376 645.343,179.55 C 648.253,184.726 652.163,188.753 657.073,191.636 C 661.983,194.519 667.251,195.96 672.876,195.96 C 678.55,195.96 683.929,194.532 689.011,191.673 C 694.093,188.816 698.005,184.946 700.743,180.068 C 703.481,175.19 704.85,169.695 704.85,163.584 C 704.85,154.27 701.778,146.483 695.635,140.226 C 689.491,133.966 681.931,130.835 672.95,130.835 z"
   id="path15"
   style="fill:#989898;fill-opacity:1" />
		<path
   d="M 731.324,122.835 L 741.699,122.835 L 741.699,136.788 C 745.318,131.643 749.037,127.882 752.857,125.507 C 758.113,122.394 763.642,120.835 769.445,120.835 C 773.361,120.835 777.08,121.603 780.601,123.136 C 784.122,124.671 786.999,126.712 789.23,129.259 C 791.46,131.808 793.396,135.456 795.033,140.206 C 798.492,133.874 802.816,129.061 808.008,125.77 C 813.197,122.481 818.783,120.834 824.766,120.834 C 830.352,120.834 835.282,122.244 839.557,125.061 C 843.832,127.879 847.008,131.809 849.084,136.852 C 851.16,141.895 852.199,149.456 852.199,159.539 L 852.199,203.584 L 841.574,203.584 L 841.574,159.564 C 841.574,150.919 840.955,144.979 839.72,141.743 C 838.485,138.507 836.374,135.901 833.386,133.925 C 830.398,131.949 826.829,130.96 822.681,130.96 C 817.642,130.96 813.036,132.442 808.863,135.407 C 804.69,138.372 801.638,142.323 799.713,147.264 C 797.787,152.204 796.824,160.454 796.824,172.013 L 796.824,203.583 L 786.449,203.583 L 786.449,162.306 C 786.449,152.574 785.842,145.967 784.627,142.483 C 783.412,139.001 781.295,136.21 778.272,134.11 C 775.249,132.01 771.657,130.96 767.495,130.96 C 762.686,130.96 758.19,132.405 754.003,135.296 C 749.816,138.187 746.718,142.077 744.71,146.968 C 742.702,151.858 741.7,159.342 741.7,169.42 L 741.7,203.584 L 731.325,203.584 L 731.325,122.835 L 731.324,122.835 z"
   id="path17"
   style="fill:#989898;fill-opacity:1" />
		<path
   d="M 868.304,122.835 L 878.679,122.835 L 878.679,137.679 C 882.777,132.038 887.493,127.822 892.825,125.027 C 898.157,122.234 904.108,120.836 910.677,120.836 C 922.132,120.836 931.933,124.961 940.081,133.209 C 948.229,141.457 952.304,151.382 952.304,162.987 C 952.304,174.841 948.267,184.903 940.193,193.176 C 932.119,201.449 922.38,205.584 910.974,205.584 C 904.554,205.584 898.654,204.248 893.271,201.576 C 887.888,198.904 883.023,194.922 878.679,189.627 L 878.679,233.084 L 868.304,233.084 L 868.304,122.835 L 868.304,122.835 z M 909.892,130.835 C 900.929,130.835 893.382,133.966 887.251,140.224 C 881.118,146.482 878.054,154.268 878.054,163.582 C 878.054,169.693 879.419,175.187 882.154,180.066 C 884.886,184.945 888.8,188.814 893.898,191.671 C 898.996,194.53 904.377,195.958 910.041,195.958 C 915.605,195.958 920.838,194.517 925.738,191.634 C 930.636,188.751 934.539,184.724 937.445,179.548 C 940.351,174.374 941.804,168.952 941.804,163.284 C 941.804,157.569 940.363,152.147 937.482,147.023 C 934.601,141.898 930.722,137.919 925.847,135.085 C 920.972,132.251 915.653,130.835 909.892,130.835 z"
   id="path19"
   style="fill:#989898;fill-opacity:1" />
	</g><g
     id="g21"
     transform="translate(13.43503,0)">
		
			<text
   font-size="31.24"
   letter-spacing="7"
   id="text23"
   style="font-size:34.52257156px;font-style:italic;font-variant:normal;font-weight:normal;font-stretch:normal;text-align:start;line-height:125%;letter-spacing:5.10255814;writing-mode:lr-tb;text-anchor:start;fill:#cc0001;fill-opacity:1;font-family:AnjaliOldLipi;-inkscape-font-specification:AnjaliOldLipi Italic"
   sodipodi:linespacing="125%"
   x="694.79871"
   y="114.19425"
   transform="scale(1.0615312,0.9420355)"><tspan
     style="font-size:34.52257156px;font-style:italic;font-variant:normal;font-weight:normal;font-stretch:normal;text-align:start;line-height:125%;writing-mode:lr-tb;text-anchor:start;font-family:AnjaliOldLipi;-inkscape-font-specification:AnjaliOldLipi Italic"
     id="tspan2539">CHICAGO</tspan></text>




	</g></g>
<path
   style="fill:url(#pattern3706);stroke:none"
   d="m 1587.4006,-976.21283 2962.9629,0 0,2222.22213 -2962.9629,0 0,-2222.22213 z"
   id="rect3709" /><g
   id="g25"
   transform="matrix(10.492844,0,0,10.492709,2792.2515,-2268.639)">
		<path
   style="fill:#cc0001;fill-opacity:1"
   id="path27"
   d="m 154.053,132.345 c 13.164,-5.489 13.688,-26.416 7.842,-37.331 -7.842,-14.639 -27.636,-12.207 -41.003,-8.386 3.702,-10.644 10.503,-25.182 22.777,-27.283 12.188,-2.086 24.119,5.481 34.719,10.387 9.461,4.378 26.101,9.88 32.936,-2.076 2.076,-5.046 -4.089,-9.204 -9.492,-12.637 -5.397,-3.428 -11.137,-6.708 -17.137,-8.955 129.83,-27.54 133.409,244.862 -4.036,206.036 -9.922,-2.797 -19.471,-6.83 -28.653,-11.486 12.835,1.066 26.657,-0.293 36.929,-8.619 8.796,-7.129 13.441,-22 -1.054,-25.455 -13.025,-3.104 -27.208,4.828 -40.058,5.92 -16.175,1.371 -29.973,1.777 -39.171,-10.977 7.123,-0.889 12.632,-2.785 15.43,-4.809 4.837,-3.496 9.527,-8.396 9.955,-14.637 0.819,-11.943 -8.356,-23.131 -18.632,-28.219 -4.752,-2.348 -10.439,-3.186 -15.576,-1.672 -6.609,1.949 -8.518,7.656 -13.15,12.043 -4.533,4.293 -8.765,7.436 -15.015,8.684 -7.285,1.287 -14.326,-2.213 -19.936,-6.561 -3.07,-2.385 -5.678,-5.271 -8.42,-8.014 11.71,1.674 27.324,4.693 34.189,-8.447 5.516,-10.571 -1.031,-22.59 4.803,-33.282 7.491,-13.733 26.508,-2.974 35.851,2.42 10.71,6.19 21.382,19.404 35.902,13.356 z" />
		
	</g></svg>