<?xml version="1.0" encoding="UTF-8" standalone="no"?>
<!-- Generator: Adobe Illustrator 12.0.0, SVG Export Plug-In . SVG Version: 6.00 Build 51448)  -->

<svg
   xmlns:dc="http://purl.org/dc/elements/1.1/"
   xmlns:cc="http://creativecommons.org/ns#"
   xmlns:rdf="http://www.w3.org/1999/02/22-rdf-syntax-ns#"
   xmlns:svg="http://www.w3.org/2000/svg"
   xmlns="http://www.w3.org/2000/svg"
   xmlns:xlink="http://www.w3.org/1999/xlink"
   xmlns:sodipodi="http://sodipodi.sourceforge.net/DTD/sodipodi-0.dtd"
   xmlns:inkscape="http://www.inkscape.org/namespaces/inkscape"
   version="1.0"
   id="barcamp_logo"
   width="1269"
   height="300"
   viewBox="0 0 9400.1175 666.66667"
   overflow="visible"
   enable-background="new 0 0 1000 300"
   xml:space="preserve"
   sodipodi:version="0.32"
   inkscape:version="0.47 r22583"
   sodipodi:docname="collage-20100623.svg"
   inkscape:output_extension="org.inkscape.output.svg.inkscape"
   style="overflow:visible"
   inkscape:export-filename="/home/eviljoel/Desktop/BARcamp Chicago 2010/barcampChicago-wikiLogo-20100517.png"
   inkscape:export-xdpi="90"
   inkscape:export-ydpi="90"><metadata
   id="metadata46"><rdf:RDF><cc:Work
       rdf:about=""><dc:format>image/svg+xml</dc:format><dc:type
         rdf:resource="http://purl.org/dc/dcmitype/StillImage" /><dc:title /></cc:Work></rdf:RDF></metadata><defs
   id="defs44"><pattern
   inkscape:collect="always"
   xlink:href="#pattern4961"
   id="pattern2901"
   patternTransform="matrix(7.4074074,0,0,7.4074075,2771.8478,-660.30389)" /><pattern
   inkscape:collect="always"
   xlink:href="#pattern4535"
   id="pattern2898"
   patternTransform="matrix(7.4074074,0,0,7.4074075,-358.94031,-324.83574)" /><pattern
   inkscape:collect="always"
   xlink:href="#pattern4403"
   id="pattern2895"
   patternTransform="matrix(7.4074074,0,0,7.4074075,5863.2137,-1382.5066)" /><pattern
   inkscape:collect="always"
   xlink:href="#pattern5201"
   id="pattern2892"
   patternTransform="matrix(7.4074074,0,0,7.4074075,6002.8386,3580.0518)" /><pattern
   inkscape:collect="always"
   xlink:href="#pattern4425"
   id="pattern2889"
   patternTransform="matrix(7.4074074,0,0,7.4074075,567.97633,-1366.5483)" /><pattern
   inkscape:collect="always"
   xlink:href="#pattern4401"
   id="pattern2886"
   patternTransform="matrix(7.4074074,0,0,7.4074075,5212.8016,-1159.1777)" /><pattern
   inkscape:collect="always"
   xlink:href="#pattern4529"
   id="pattern4535"
   patternTransform="matrix(0.70594849,0,0,0.70595758,-300.31818,68.769825)" /><pattern
   inkscape:collect="always"
   xlink:href="#pattern3192-5"
   id="pattern4403"
   patternTransform="matrix(0.70594849,0,0,0.70595758,292.67205,-32.030731)" /><pattern
   inkscape:collect="always"
   xlink:href="#pattern3677"
   id="pattern4401"
   patternTransform="matrix(0.70594849,0,0,0.70595758,230.6858,-10.746533)" /><pattern
   inkscape:collect="always"
   xlink:href="#pattern3701"
   id="pattern4425"
   patternTransform="matrix(0.70594849,0,0,0.70595758,-211.9802,-30.50983)" /><pattern
   inkscape:collect="always"
   xlink:href="#pattern5195"
   id="pattern5201"
   patternTransform="matrix(0.70594849,0,0,0.70595758,305.97873,440.92229)" /><pattern
   inkscape:collect="always"
   xlink:href="#pattern4958"
   id="pattern4961"
   patternTransform="matrix(0.70594849,0,0,0.70595758,-1.944531,36.798277)" /><pattern
   inkscape:collect="always"
   xlink:href="#pattern4234"
   id="pattern4958"
   patternTransform="translate(-55.800495,-244.89092)" /><inkscape:perspective
   sodipodi:type="inkscape:persp3d"
   inkscape:vp_x="0 : 150 : 1"
   inkscape:vp_y="0 : 1000 : 0"
   inkscape:vp_z="1000 : 150 : 1"
   inkscape:persp3d-origin="500 : 100 : 1"
   id="perspective48" /><inkscape:perspective
   id="perspective2533"
   inkscape:persp3d-origin="372.04724 : 350.78739 : 1"
   inkscape:vp_z="744.09448 : 526.18109 : 1"
   inkscape:vp_y="0 : 1000 : 0"
   inkscape:vp_x="0 : 526.18109 : 1"
   sodipodi:type="inkscape:persp3d" />
	
	
	
<inkscape:perspective
   id="perspective2928"
   inkscape:persp3d-origin="0.5 : 0.33333333 : 1"
   inkscape:vp_z="1 : 0.5 : 1"
   inkscape:vp_y="0 : 1000 : 0"
   inkscape:vp_x="0 : 0.5 : 1"
   sodipodi:type="inkscape:persp3d" /><pattern
   patternUnits="userSpaceOnUse"
   width="399.99999"
   height="299.99999"
   patternTransform="matrix(7.4074074,0,0,7.4074074,1587.4006,-976.21283)"
   id="pattern3706"><image
     xlink:href="file:///home/eviljoel/Desktop/BARcamp%20Chicago%202010/Collage/test2.png"
     width="400"
     height="300"
     id="image2930"
     x="0"
     y="2.8421709e-14" /></pattern><inkscape:perspective
   id="perspective2862"
   inkscape:persp3d-origin="0.5 : 0.33333333 : 1"
   inkscape:vp_z="1 : 0.5 : 1"
   inkscape:vp_y="0 : 1000 : 0"
   inkscape:vp_x="0 : 0.5 : 1"
   sodipodi:type="inkscape:persp3d" /><inkscape:perspective
   id="perspective2862-0"
   inkscape:persp3d-origin="0.5 : 0.33333333 : 1"
   inkscape:vp_z="1 : 0.5 : 1"
   inkscape:vp_y="0 : 1000 : 0"
   inkscape:vp_x="0 : 0.5 : 1"
   sodipodi:type="inkscape:persp3d" /><inkscape:perspective
   id="perspective2895"
   inkscape:persp3d-origin="0.5 : 0.33333333 : 1"
   inkscape:vp_z="1 : 0.5 : 1"
   inkscape:vp_y="0 : 1000 : 0"
   inkscape:vp_x="0 : 0.5 : 1"
   sodipodi:type="inkscape:persp3d" /><inkscape:perspective
   id="perspective3028"
   inkscape:persp3d-origin="0.5 : 0.33333333 : 1"
   inkscape:vp_z="1 : 0.5 : 1"
   inkscape:vp_y="0 : 1000 : 0"
   inkscape:vp_x="0 : 0.5 : 1"
   sodipodi:type="inkscape:persp3d" /><pattern
   patternUnits="userSpaceOnUse"
   width="400"
   height="300.00001"
   patternTransform="matrix(0.70594849,0,0,0.70595758,-57.714434,141.63483)"
   id="pattern3034"><image
     xlink:href="file:///home/eviljoel/Desktop/BARcamp%20Chicago%202010/Collage/test2.png"
     width="400"
     height="300"
     id="image3030"
     x="0"
     y="-1.4210855e-14" /></pattern><inkscape:perspective
   id="perspective3180"
   inkscape:persp3d-origin="0.5 : 0.33333333 : 1"
   inkscape:vp_z="1 : 0.5 : 1"
   inkscape:vp_y="0 : 1000 : 0"
   inkscape:vp_x="0 : 0.5 : 1"
   sodipodi:type="inkscape:persp3d" /><pattern
   patternUnits="userSpaceOnUse"
   width="921.33334"
   height="690.99999"
   patternTransform="translate(-127.46718,-309.38829)"
   id="pattern3186"><image
     xlink:href="file:///home/eviljoel/Desktop/BARcamp%20Chicago%202010/Collage/2782691073_65726d15b7_b.jpg"
     width="921.33331"
     height="691"
     id="image3182"
     x="0"
     y="3.5527137e-14" /></pattern><inkscape:perspective
   id="perspective3202"
   inkscape:persp3d-origin="0.5 : 0.33333333 : 1"
   inkscape:vp_z="1 : 0.5 : 1"
   inkscape:vp_y="0 : 1000 : 0"
   inkscape:vp_x="0 : 0.5 : 1"
   sodipodi:type="inkscape:persp3d" /><pattern
   patternUnits="userSpaceOnUse"
   width="921.33334"
   height="690.99999"
   patternTransform="translate(-127.46718,-309.38829)"
   id="pattern3186-3"><image
     xlink:href="file:///home/eviljoel/Desktop/BARcamp%20Chicago%202010/Collage/2782691073_65726d15b7_b.jpg"
     width="921.33331"
     height="691"
     id="image3182-8"
     x="0"
     y="3.5527137e-14" /></pattern><inkscape:perspective
   id="perspective3456"
   inkscape:persp3d-origin="0.5 : 0.33333333 : 1"
   inkscape:vp_z="1 : 0.5 : 1"
   inkscape:vp_y="0 : 1000 : 0"
   inkscape:vp_x="0 : 0.5 : 1"
   sodipodi:type="inkscape:persp3d" /><pattern
   patternUnits="userSpaceOnUse"
   width="900.99997"
   height="675.75001"
   patternTransform="matrix(0.70594849,0,0,0.70595758,-305.50235,9.9718933)"
   id="pattern4234"><image
     xlink:href="file:///home/eviljoel/Desktop/BARcamp%20Chicago%202010/Collage/2783551302_09df74cfd8_b.jpg"
     width="900.99994"
     height="675.75"
     id="image3458"
     x="0"
     y="-3.907985e-14" /></pattern><inkscape:perspective
   id="perspective5151"
   inkscape:persp3d-origin="0.5 : 0.33333333 : 1"
   inkscape:vp_z="1 : 0.5 : 1"
   inkscape:vp_y="0 : 1000 : 0"
   inkscape:vp_x="0 : 0.5 : 1"
   sodipodi:type="inkscape:persp3d" /><inkscape:perspective
   id="perspective5165"
   inkscape:persp3d-origin="0.5 : 0.33333333 : 1"
   inkscape:vp_z="1 : 0.5 : 1"
   inkscape:vp_y="0 : 1000 : 0"
   inkscape:vp_x="0 : 0.5 : 1"
   sodipodi:type="inkscape:persp3d" /><pattern
   patternUnits="userSpaceOnUse"
   width="900.99997"
   height="675.75001"
   patternTransform="matrix(0.70594849,0,0,0.70595758,-305.50235,9.9718933)"
   id="pattern4234-8"><image
     xlink:href="file:///home/eviljoel/Desktop/BARcamp%20Chicago%202010/Collage/2783551302_09df74cfd8_b.jpg"
     width="900.99994"
     height="675.75"
     id="image3458-5"
     x="0"
     y="-3.907985e-14" /></pattern><pattern
   patternUnits="userSpaceOnUse"
   width="1024"
   height="768"
   patternTransform="translate(-99.30051,-491.64092)"
   id="pattern5195"><image
     xlink:href="file:///home/eviljoel/Desktop/BARcamp%20Chicago%202010/Collage/2793878665_e62e6ca4dd_b.jpg"
     width="1024"
     height="768"
     id="image5153"
     x="0"
     y="2.8421709e-14" /></pattern><inkscape:perspective
   id="perspective5340"
   inkscape:persp3d-origin="0.5 : 0.33333333 : 1"
   inkscape:vp_z="1 : 0.5 : 1"
   inkscape:vp_y="0 : 1000 : 0"
   inkscape:vp_x="0 : 0.5 : 1"
   sodipodi:type="inkscape:persp3d" /><pattern
   patternTransform="translate(-176.77968,-159.26289)"
   id="pattern2874"
   xlink:href="#pattern3192-5"
   inkscape:collect="always" /><inkscape:perspective
   id="perspective2866"
   inkscape:persp3d-origin="0.5 : 0.33333333 : 1"
   inkscape:vp_z="1 : 0.5 : 1"
   inkscape:vp_y="0 : 1000 : 0"
   inkscape:vp_x="0 : 0.5 : 1"
   sodipodi:type="inkscape:persp3d" /><pattern
   inkscape:collect="always"
   xlink:href="#pattern3186-6"
   id="pattern3192-5"
   patternTransform="matrix(0.70594849,0,0,0.70595758,-245.26142,-32.030731)" /><pattern
   patternUnits="userSpaceOnUse"
   width="921.33334"
   height="690.99999"
   patternTransform="translate(-127.46718,-309.38829)"
   id="pattern3186-6"><image
     xlink:href="file:///home/eviljoel/Desktop/BARcamp%20Chicago%202010/Collage/2782691073_65726d15b7_b.jpg"
     width="921.33331"
     height="691"
     id="image3182-3"
     x="0"
     y="3.5527137e-14" /></pattern><inkscape:perspective
   id="perspective2902"
   inkscape:persp3d-origin="0.5 : 0.33333333 : 1"
   inkscape:vp_z="1 : 0.5 : 1"
   inkscape:vp_y="0 : 1000 : 0"
   inkscape:vp_x="0 : 0.5 : 1"
   sodipodi:type="inkscape:persp3d" /><pattern
   patternUnits="userSpaceOnUse"
   width="921.33334"
   height="690.99999"
   patternTransform="translate(-127.46718,-309.38829)"
   id="pattern3186-6-0"><image
     xlink:href="file:///home/eviljoel/Desktop/BARcamp%20Chicago%202010/Collage/2782691073_65726d15b7_b.jpg"
     width="921.33331"
     height="691"
     id="image3182-3-9"
     x="0"
     y="3.5527137e-14" /></pattern><pattern
   patternUnits="userSpaceOnUse"
   width="716.33328"
   height="537.24998"
   patternTransform="translate(-131.32287,-317.23391)"
   id="pattern3701"><image
     xlink:href="file:///home/eviljoel/Desktop/BARcamp%20Chicago%202010/Collage/2783550758_c33ed9b8b5_b.jpg"
     width="716.33325"
     height="537.25"
     id="image5342"
     x="0"
     y="-4.2632564e-14" /></pattern><inkscape:perspective
   id="perspective3138"
   inkscape:persp3d-origin="0.5 : 0.33333333 : 1"
   inkscape:vp_z="1 : 0.5 : 1"
   inkscape:vp_y="0 : 1000 : 0"
   inkscape:vp_x="0 : 0.5 : 1"
   sodipodi:type="inkscape:persp3d" /><inkscape:perspective
   id="perspective2878"
   inkscape:persp3d-origin="0.5 : 0.33333333 : 1"
   inkscape:vp_z="1 : 0.5 : 1"
   inkscape:vp_y="0 : 1000 : 0"
   inkscape:vp_x="0 : 0.5 : 1"
   sodipodi:type="inkscape:persp3d" /><pattern
   patternUnits="userSpaceOnUse"
   width="1024"
   height="768"
   patternTransform="translate(-99.30051,-491.64092)"
   id="pattern5195-6"><image
     xlink:href="file:///home/eviljoel/Desktop/BARcamp%20Chicago%202010/Collage/2793878665_e62e6ca4dd_b.jpg"
     width="1024"
     height="768"
     id="image5153-0"
     x="0"
     y="2.8421709e-14" /></pattern><pattern
   patternUnits="userSpaceOnUse"
   width="621.35971"
   height="466.01975"
   patternTransform="translate(491.90598,-80.199287)"
   id="pattern3677"><image
     transform="scale(-1,1)"
     xlink:href="file:///home/eviljoel/Desktop/BARcamp%20Chicago%202010/Collage/2793878665_e62e6ca4dd_b.jpg"
     width="621.35968"
     height="466.01974"
     id="image3140"
     x="-621.35968"
     y="2.8421709e-14" /></pattern><inkscape:perspective
   id="perspective4488"
   inkscape:persp3d-origin="0.5 : 0.33333333 : 1"
   inkscape:vp_z="1 : 0.5 : 1"
   inkscape:vp_y="0 : 1000 : 0"
   inkscape:vp_x="0 : 0.5 : 1"
   sodipodi:type="inkscape:persp3d" /><inkscape:perspective
   id="perspective4502"
   inkscape:persp3d-origin="0.5 : 0.33333333 : 1"
   inkscape:vp_z="1 : 0.5 : 1"
   inkscape:vp_y="0 : 1000 : 0"
   inkscape:vp_x="0 : 0.5 : 1"
   sodipodi:type="inkscape:persp3d" /><pattern
   patternUnits="userSpaceOnUse"
   width="621.35971"
   height="466.01975"
   patternTransform="translate(491.90598,-80.199287)"
   id="pattern3677-6"><image
     transform="scale(-1,1)"
     xlink:href="file:///home/eviljoel/Desktop/BARcamp%20Chicago%202010/Collage/2793878665_e62e6ca4dd_b.jpg"
     width="621.35968"
     height="466.01974"
     id="image3140-7"
     x="-621.35968"
     y="2.8421709e-14" /></pattern><pattern
   patternUnits="userSpaceOnUse"
   width="753.63695"
   height="353.26734"
   patternTransform="translate(19.543203,-31.602444)"
   id="pattern4529"><image
     xlink:href="file:///home/eviljoel/Desktop/BARcamp%20Chicago%202010/Collage/604127051_a85ea601f4_b.jpg"
     width="753.63696"
     height="353.26733"
     id="image4490"
     x="0"
     y="0" /></pattern>
		
		
	</defs><sodipodi:namedview
   inkscape:window-height="822"
   inkscape:window-width="1086"
   inkscape:pageshadow="2"
   inkscape:pageopacity="1"
   guidetolerance="10.0"
   gridtolerance="10.0"
   objecttolerance="10.0"
   borderopacity="1.0"
   bordercolor="#666666"
   pagecolor="#ffffff"
   id="base"
   showgrid="false"
   inkscape:zoom="0.70910507"
   inkscape:cx="1684.8397"
   inkscape:cy="-42.609079"
   inkscape:window-x="0"
   inkscape:window-y="25"
   inkscape:current-layer="barcamp_logo"
   inkscape:window-maximized="0" />

<path
   id="rect5198"
   d="m 10652.747,4832.4845 c -83.153,-0.021 -172.056,0.094 -265.74,0.2319 -416.8005,0.6128 -924.1288,2.6633 -1412.4979,4.1668 -8.0045,-0.1501 -16.1873,-0.095 -24.3057,0 -56.829,0.6463 -116.3003,7.1333 -178.7037,20.3703 62.9573,23.577 122.9999,58.0124 179.6297,93.9815 56.6928,36.0215 121.5515,79.6927 99.7685,132.6389 -71.7185,125.4508 -246.3292,67.6964 -345.6018,21.7592 -111.2241,-51.477 -236.4649,-130.9155 -364.3519,-109.0277 -128.7892,22.0452 -200.0444,174.6583 -238.8889,286.3425 140.2579,-40.0926 347.8077,-65.6397 430.0926,87.963 61.3412,114.528 56.4146,334.0722 -81.713,391.6667 -152.3562,63.4599 -264.7048,-75.0964 -377.0833,-140.0462 -98.0347,-56.5978 -297.787,-169.5594 -376.3889,-25.463 -61.2152,112.1881 7.6471,238.3872 -50.2314,349.3055 -72.0335,137.8742 -235.4623,106.2222 -358.3334,88.6574 28.7714,28.7815 55.9813,59.0027 88.1945,84.0278 58.8648,45.6223 132.356,82.4856 208.7962,68.9815 65.5803,-13.0949 110.0749,-46.1583 157.6389,-91.2038 48.6029,-46.0314 68.6158,-105.9385 137.963,-126.3888 53.9016,-15.8859 114.0267,-7.0442 163.8889,17.5926 107.8243,53.3869 203.7323,170.7505 195.1389,296.0648 -4.4911,65.4851 -53.413,116.7897 -104.1667,153.4722 -29.359,21.2371 -87.2966,41.135 -162.037,50.463 96.5132,133.8239 241.1578,129.6632 410.8796,115.2777 134.8331,-11.458 283.4697,-94.6063 420.1389,-62.037 152.0937,36.2525 103.4061,192.0956 11.1111,266.8982 -107.7826,87.3622 -252.5929,101.6943 -387.2685,90.5092 96.3452,48.854 196.353,91.2539 300.4629,120.6019 95.7283,27.0413 184.8582,39.6744 267.5926,39.8149 838.6331,7.5167 1255.6458,2.8461 1959.9508,0.6946 -27.096,-0.2246 -50.463,-0.4439 -78.473,-0.6946 -82.734,-0.1406 -171.864,-12.7736 -267.591,-39.8149 -104.11,-29.348 -204.118,-71.7479 -300.463,-120.6019 134.676,11.1851 279.486,-3.147 387.268,-90.5092 92.295,-74.8026 140.982,-230.6459 -11.111,-266.8982 -136.669,-32.5693 -285.306,50.579 -420.138,62.037 -169.722,14.3855 -314.3659,18.5462 -410.879,-115.2777 74.7406,-9.328 132.2148,-29.2259 161.574,-50.463 50.753,-36.6825 99.907,-87.9871 104.398,-153.4722 8.593,-125.3143 -87.546,-242.6779 -195.3703,-296.0648 -49.8619,-24.6368 -109.5241,-33.4785 -163.4255,-17.5926 -69.3473,20.4503 -89.3598,80.3574 -137.9627,126.3888 -47.5642,45.0455 -92.0581,78.1089 -157.6386,91.2038 -76.4402,13.5042 -150.394,-23.3592 -209.2591,-68.9815 -32.2129,-25.0251 -59.4228,-55.2463 -88.1943,-84.0278 122.8713,17.5648 286.531,49.2168 358.5644,-88.6574 57.8784,-110.9183 -10.7524,-237.1174 50.4629,-349.3055 78.6018,-144.0964 278.1221,-31.1348 376.1566,25.463 112.3786,64.9497 224.4956,203.5061 376.8506,140.0462 138.128,-57.5945 143.517,-277.1388 82.176,-391.6667 -82.285,-153.6027 -290.065,-128.0556 -430.323,-87.963 38.844,-111.6842 110.331,-264.2973 239.12,-286.3425 127.887,-21.8878 253.127,57.5504 364.351,109.0277 99.273,45.9372 273.883,103.6916 345.601,-21.7592 21.783,-52.9462 -43.076,-96.6174 -99.768,-132.6389 -56.63,-35.9691 -116.672,-70.4045 -179.63,-93.9815 62.404,-13.237 121.875,-19.724 178.704,-20.3703 8.118,-0.095 16.301,-0.1501 24.305,0 118.045,-0.3631 235.908,-0.765 354.629,-1.1575 -111.406,-2.2428 -308.411,-3.1728 -557.869,-3.2408 z"
   style="fill:url(#pattern2892);stroke:none" /><g
   id="g2903"
   transform="translate(361.43936,-575.48824)"><path
     style="fill:url(#pattern2901);stroke:none"
     d="m 6759.0239,-198.61189 c -83.1528,-0.021 -172.0571,0.0944 -265.7409,0.23147 -416.8012,0.61277 -924.1304,2.66318 -1412.499,4.16666 -8.0045,-0.15004 -16.1873,-0.0944 -24.3056,0 -56.8288,0.64635 -116.3001,7.13342 -178.7033,20.37038 62.9571,23.57711 122.9996,58.01237 179.6293,93.981485 56.6926,36.021481 121.5513,79.69266032 99.7682,132.63887 C 5085.4544,178.2278 4910.844,120.47331 4811.5714,74.53623 4700.3473,23.059105 4575.1065,-56.379306 4447.2196,-34.491526 4318.4303,-12.446344 4246.9437,140.16666 4208.0992,251.85105 c 140.2579,-40.09264 348.0391,-65.63976 430.324,87.963 61.3413,114.52792 56.1833,334.07212 -81.9444,391.6667 -152.3561,63.45991 -264.7049,-75.09642 -377.0833,-140.04629 -98.0347,-56.59767 -297.5555,-169.55934 -376.1573,-25.46297 -61.2152,112.18804 7.4156,238.38711 -50.4629,349.30554 -72.0333,137.87417 -235.4617,106.22217 -358.3325,88.65737 28.7713,28.7815 55.9812,59.0026 88.1942,84.0277 58.8648,45.6223 132.5872,82.4856 209.0273,68.9815 65.5801,-13.0949 110.0746,-46.1583 157.6386,-91.2036 48.6029,-46.0315 68.6158,-105.93863 137.963,-126.38892 53.9016,-15.88596 113.7953,-7.04428 163.6574,17.5926 107.8243,53.38692 203.7324,170.75052 195.1389,296.06482 -4.4911,65.4851 -53.4129,116.7897 -104.1667,153.4722 -29.359,21.2371 -87.2966,41.135 -162.037,50.463 96.5132,133.8239 241.1578,129.6632 410.8796,115.2777 134.8331,-11.458 283.7011,-94.6063 420.3702,-62.0369 152.0935,36.2524 103.4059,192.0955 11.1112,266.8981 -107.7825,87.3623 -252.8243,101.6944 -387.4999,90.5092 96.3452,48.854 196.5844,91.2539 300.6944,120.6019 95.7282,27.0414 184.8579,39.6743 267.5921,39.8148 838.6334,7.5167 1255.6471,2.8463 1959.9531,0.6946 -27.0956,-0.2246 -50.4625,-0.4439 -78.4725,-0.6946 -82.7343,-0.1406 -171.8645,-12.7734 -267.5926,-39.8148 -104.11,-29.348 -204.3489,-71.7479 -300.6943,-120.6019 134.6757,11.1852 279.7175,-3.1469 387.5,-90.5092 92.2952,-74.8026 140.9829,-230.6459 -11.1111,-266.8981 -136.6692,-32.5694 -285.5376,50.5789 -420.3704,62.0369 -169.7219,14.3855 -314.3663,18.5462 -410.8797,-115.2777 74.7408,-9.328 132.4467,-29.2259 161.8056,-50.463 50.7538,-36.6825 99.9071,-87.9871 104.3981,-153.4722 8.5935,-125.3143 -87.5459,-242.6779 -195.3703,-296.06482 -49.862,-24.63688 -109.5245,-33.47856 -163.426,-17.5926 -69.3473,20.45029 -89.36,80.35742 -137.9629,126.38892 -47.5643,45.0453 -92.0584,78.1087 -157.6389,91.2036 -76.4404,13.5043 -150.3941,-23.3592 -209.2591,-68.9815 -32.2129,-25.0251 -59.4228,-55.2462 -88.1942,-84.0277 122.8711,17.5648 286.531,49.2168 358.5644,-88.65737 57.8785,-110.91843 -10.7523,-237.1175 50.4629,-349.30554 78.602,-144.09637 278.1227,-31.1347 376.1575,25.46297 112.3784,64.94977 224.4958,203.5062 376.8518,140.04629 138.1277,-57.59458 143.5171,-277.13888 82.176,-391.6667 -82.2849,-153.60276 -290.0662,-128.05564 -430.3241,-87.963 38.8446,-111.68429 110.3312,-264.297394 239.1203,-286.342576 127.8869,-21.88778 253.1277,57.550421 364.3519,109.027756 99.2728,45.93708 273.8831,103.69157 345.6019,-21.759255 21.7832,-52.94620968 -43.0757,-96.617389 -99.7686,-132.63887 -56.6297,-35.969115 -116.6724,-70.404375 -179.6296,-93.981485 62.4033,-13.23696 121.8747,-19.724 178.7036,-20.37038 8.1186,-0.0944 16.3015,-0.15004 24.3057,0 118.0448,-0.36304 235.9086,-0.76491 354.6303,-1.15739 -111.4065,-2.24282 -308.4128,-3.17275 -557.871,-3.24075 z"
     id="rect4237" /><path
     style="fill:url(#pattern2898);stroke:none"
     d="m 3007.639,-201.85516 c -83.1524,-0.021 -172.0577,0.0944 -265.7408,0.23189 -416.7987,0.61278 -924.13,2.66316 -1412.5009,4.16666 -8.0044,-0.15005 -16.1874,-0.0944 -24.3056,0 -56.8294,0.64635 -116.3003,7.13347 -178.7038,20.37039 62.9574,23.5769 122.9996,58.01209 179.6298,93.981039 56.6929,36.021366 121.5519,79.6925975 99.7687,132.63865 C 1334.0677,174.9843 1159.4572,117.22991 1060.1841,71.292724 948.95974,19.815704 823.71968,-59.622655 695.83226,-37.734969 567.04257,-15.689735 495.78798,136.92325 456.94336,248.60754 597.20184,208.5149 804.75071,182.96768 887.03602,336.57044 948.3775,451.09836 943.45121,670.64245 805.32299,728.23714 652.96606,791.69694 540.61886,653.14061 428.23966,588.19085 330.2045,531.59297 130.45317,418.6314 51.850857,562.72788 -9.3644998,674.91603 59.497937,801.1152 1.6193043,912.03341 -70.414384,1049.9077 -233.84295,1018.2559 -356.71394,1000.6908 c 28.77138,28.7816 55.98131,59.0027 88.19435,84.0278 58.86475,45.6223 132.356,82.4856 208.796364,68.9815 65.5804851,-13.0949 110.074551,-46.1582 157.638822,-91.2037 48.603064,-46.0314 68.615544,-105.93854 137.962954,-126.38893 53.90195,-15.88586 114.02637,-7.04428 163.88889,17.5926 107.82488,53.38673 203.73231,170.75053 195.13898,296.06493 -4.49104,65.4851 -53.41287,116.7898 -104.16676,153.4721 -29.35908,21.237 -87.29616,41.1349 -162.037,50.463 96.51381,133.8238 241.15714,129.6634 410.87962,115.2778 134.83368,-11.4582 283.46922,-94.6063 420.13892,-62.0371 152.0944,36.2526 103.4065,192.0956 11.1111,266.8982 -107.7831,87.3622 -252.59235,101.6941 -387.26853,90.5092 96.34561,48.8538 196.3527,91.254 300.46303,120.602 95.7287,27.0413 184.8581,39.6743 267.5928,39.8148 838.6341,7.5166 1255.6532,2.8459 1959.9545,0.6946 -27.0954,-0.2246 -50.4627,-0.4439 -78.4722,-0.6946 -82.7339,-0.1406 -171.8653,-12.7735 -267.5927,-39.8148 -104.1092,-29.348 -204.1181,-71.7482 -300.4629,-120.602 134.6748,11.1849 279.4867,-3.147 387.2686,-90.5092 92.2946,-74.8026 140.9816,-230.6461 -11.1112,-266.8982 -136.6685,-32.5692 -285.3069,50.5789 -420.1389,62.0371 -169.7208,14.3856 -314.3668,18.546 -410.8796,-115.2778 74.7403,-9.3281 132.2153,-29.226 161.5741,-50.463 50.7533,-36.6823 99.9071,-87.987 104.3981,-153.4721 8.5937,-125.3144 -87.5466,-242.6782 -195.3704,-296.06493 -49.8618,-24.63688 -109.5246,-33.47846 -163.4259,-17.5926 -69.3468,20.45039 -89.36,80.35753 -137.963,126.38893 -47.5638,45.0455 -92.0583,78.1088 -157.6388,91.2037 -76.4403,13.5042 -150.3942,-23.3592 -209.2595,-68.9815 -32.2132,-25.0251 -59.4231,-55.2462 -88.1947,-84.0278 122.8718,17.5651 286.532,49.2169 358.5653,-88.65739 57.8784,-110.91821 -10.7521,-237.11738 50.463,-349.30553 78.6016,-144.09648 278.1233,-31.13491 376.1574,25.46297 112.3777,64.94976 224.4969,203.50609 376.8519,140.04629 138.1268,-57.59469 143.5167,-277.13899 82.1759,-391.6667 -82.2843,-153.60276 -290.067,-128.05554 -430.3241,-87.9629 38.8442,-111.68429 110.3319,-264.297275 239.1203,-286.342509 127.8861,-21.887686 253.1285,57.550358 364.3519,109.027693 99.2722,45.937186 273.8837,103.691576 345.6019,-21.759255 21.7829,-52.9460525 -43.0762,-96.617284 -99.7686,-132.63865 -56.6295,-35.968949 -116.6728,-70.404139 -179.6296,-93.981039 62.4028,-13.23692 121.8749,-19.72404 178.7037,-20.37039 8.1182,-0.0944 16.3014,-0.15005 24.3056,0 118.0437,-0.36305 235.9082,-0.76492 354.6291,-1.15735 -111.4061,-2.24281 -308.4132,-3.17278 -557.8698,-3.24078 z"
     id="rect4532"
     sodipodi:nodetypes="cscsccccscccccccccsccscccccccccccccccccsccscccccccccsccccsccc" /><path
     style="color:#000000;fill:url(#pattern2895);fill-opacity:1;fill-rule:nonzero;stroke:none;marker:none;visibility:visible;display:inline;overflow:visible;enable-background:accumulate"
     d="m 10537.512,-202.77856 c -83.153,-0.0231 -172.057,0.0934 -265.741,0.23147 -416.8009,0.61278 -924.1304,2.66326 -1412.501,4.16667 -8.0043,-0.15005 -16.1872,-0.0944 -24.3056,0 -56.8291,0.64635 -116.3007,7.13341 -178.7041,20.37038 62.9572,23.5771 123,58.01244 179.63,93.98148 56.6929,36.021481 121.5519,79.692723 99.7687,132.63888 -71.7187,125.45083 -246.3295,67.69634 -345.6025,21.759255 C 8478.8321,18.89245 8353.591,-60.545972 8225.7038,-38.658191 8096.9143,-16.61301 8025.4276,136 7986.5829,247.6844 c 140.2583,-40.09265 348.04,-65.63977 430.325,87.963 61.3414,114.52792 55.952,334.07211 -82.1761,391.66659 -152.3563,63.45991 -264.4739,-75.09642 -376.8526,-140.04629 -98.0348,-56.59767 -297.5561,-169.55924 -376.1582,-25.46286 -61.2154,112.18804 7.4155,238.3871 -50.4631,349.30553 -72.0336,137.87423 -235.694,106.22223 -358.5651,88.65741 28.7714,28.78152 55.9813,59.00262 88.1944,84.02772 58.8649,45.6223 132.819,82.4856 209.2595,68.9815 65.5804,-13.0949 110.075,-46.1585 157.6392,-91.2037 48.603,-46.0315 68.616,-105.93859 137.9633,-126.38888 53.9017,-15.88596 113.5641,-7.04428 163.4262,17.5926 107.8247,53.38688 203.9643,170.75038 195.3708,296.06478 -4.491,65.485 -53.6443,116.7897 -104.3983,153.4723 -29.359,21.2372 -87.0653,41.135 -161.806,50.463 96.5134,133.824 241.1584,129.6632 410.8806,115.2777 134.8332,-11.458 283.7017,-94.6064 420.3712,-62.037 152.0941,36.2524 103.4064,192.0956 11.1111,266.8981 -107.7827,87.3623 -252.8249,101.6945 -387.5008,90.5093 96.3455,48.854 196.5849,91.2537 300.6951,120.6018 95.7285,27.0414 184.8586,39.6742 267.5932,39.8148 838.6354,7.5167 1255.6497,2.8464 1959.9547,0.6946 -27.095,-0.2245 -50.462,-0.4438 -78.472,-0.6946 -82.734,-0.1406 -171.864,-12.7734 -267.593,-39.8148 -104.11,-29.3481 -204.349,-71.7478 -300.694,-120.6018 134.676,11.1852 279.717,-3.147 387.5,-90.5093 92.295,-74.8025 140.983,-230.6458 -11.111,-266.8981 -136.669,-32.5694 -285.537,50.579 -420.37,62.037 -169.7222,14.3855 -314.3668,18.5463 -410.8801,-115.2777 74.7406,-9.328 132.4466,-29.2258 161.8056,-50.463 50.7538,-36.6826 99.9075,-87.9872 104.3985,-153.4723 8.593,-125.3144 -87.5463,-242.6779 -195.3707,-296.06478 -49.8621,-24.63688 -109.5243,-33.47856 -163.4259,-17.5926 -69.3474,20.45029 -89.36,80.35738 -137.963,126.38888 -47.5644,45.0452 -92.0585,78.1089 -157.6392,91.2037 -76.4406,13.5042 -150.3946,-23.3592 -209.2598,-68.9815 -32.2131,-25.0251 -59.423,-55.2462 -88.1946,-84.02772 122.8717,17.56482 286.5319,49.21682 358.5656,-88.65741 57.8787,-110.91843 -10.7524,-237.11749 50.463,-349.30553 78.6023,-144.09638 278.1228,-31.13481 376.1576,25.46286 112.3784,64.94977 224.496,203.5062 376.852,140.04629 138.128,-57.59448 143.517,-277.13878 82.176,-391.66659 -82.285,-153.60277 -290.066,-128.05565 -430.3243,-87.963 38.8445,-111.68429 110.3311,-264.29741 239.1203,-286.342591 127.887,-21.887781 253.128,57.550431 364.352,109.027766 99.273,45.937085 273.883,103.691575 345.602,-21.759255 21.783,-52.946157 -43.076,-96.617399 -99.769,-132.63888 -56.63,-35.96904 -116.672,-70.40438 -179.629,-93.98148 62.403,-13.23697 121.874,-19.72401 178.703,-20.37038 8.119,-0.0944 16.302,-0.15005 24.306,0 118.044,-0.36305 235.677,-0.76492 354.398,-1.1574 -111.406,-2.24282 -308.181,-3.17274 -557.639,-3.24075 z"
     id="rect3189" /><path
     style="fill:url(#pattern2889);stroke:none"
     d="m 4884.9498,-206.01929 c -83.1528,-0.021 -172.057,0.0944 -265.7409,0.23147 -416.8012,0.61277 -924.13,2.66318 -1412.4986,4.16666 -8.0042,-0.15004 -16.187,-0.0944 -24.3054,0 -56.8289,0.64635 -116.3002,7.13341 -178.7034,20.37037 62.957,23.57712 122.9994,58.01237 179.6293,93.981483 56.6925,36.021481 121.5514,79.6926919 99.7683,132.638849 C 3211.3806,170.82027 3036.7706,113.06567 2937.498,67.128797 2826.2741,15.651672 2701.0334,-63.786708 2573.1468,-41.898938 2444.358,-19.853746 2372.8715,132.75922 2334.027,244.44362 c 140.2576,-40.09275 348.0385,-65.63987 430.3232,87.9629 61.341,114.52791 55.9516,334.07211 -82.1758,391.6667 -152.3557,63.4599 -264.4728,-75.09653 -376.8511,-140.0463 C 2207.2889,527.42925 2008,414.46758 1929.3982,558.56395 c -61.2153,112.18794 7.1839,238.38711 -50.6945,349.30554 -72.0335,137.87421 -235.4624,106.22221 -358.3338,88.65741 28.7715,28.7815 55.9814,59.0027 88.1947,84.0278 58.8649,45.6223 132.5877,82.4856 209.028,68.9815 65.5803,-13.0949 110.0748,-46.1585 157.6388,-91.2038 48.6029,-46.0314 68.6159,-105.93857 137.9628,-126.38886 53.9015,-15.88596 113.5636,-7.04428 163.4255,17.5926 107.8242,53.38686 203.9635,170.75046 195.37,296.06476 -4.491,65.4851 -53.6443,116.7898 -104.398,153.4723 -29.3588,21.2371 -87.0649,41.135 -161.8052,50.463 96.513,133.8239 241.1573,129.6632 410.8788,115.2777 134.8327,-11.458 283.7006,-94.6064 420.3695,-62.037 152.0936,36.2524 103.4059,192.0956 11.1111,266.8981 -107.7824,87.3623 -252.824,101.6944 -387.4992,90.5093 96.345,48.8539 196.5841,91.2538 300.6938,120.6018 95.7281,27.0415 184.8579,39.6743 267.5921,39.8149 838.6328,7.5167 1255.6465,2.8463 1959.9524,0.6946 -27.0958,-0.2245 -50.4624,-0.4438 -78.4723,-0.6946 -82.7343,-0.1406 -171.8643,-12.7734 -267.5926,-39.8149 -104.11,-29.348 -204.3492,-71.7479 -300.6944,-120.6018 134.6756,11.1851 279.7175,-3.147 387.5,-90.5093 92.2951,-74.8025 140.9827,-230.6459 -11.1111,-266.8981 -136.6692,-32.5694 -285.5375,50.579 -420.3704,62.037 -169.7218,14.3855 -314.3664,18.5462 -410.8796,-115.2777 74.7406,-9.328 132.4465,-29.2259 161.8055,-50.463 50.7538,-36.6825 99.9071,-87.9872 104.3981,-153.4723 8.5937,-125.3143 -87.546,-242.6779 -195.3703,-296.06476 -49.8621,-24.63688 -109.5243,-33.47856 -163.426,-17.5926 -69.3472,20.45029 -89.36,80.35746 -137.9629,126.38886 -47.5642,45.0453 -92.0581,78.1089 -157.6386,91.2038 -76.4403,13.5042 -150.3939,-23.3592 -209.2588,-68.9815 -32.2131,-25.0251 -59.4229,-55.2463 -88.1943,-84.0278 122.8712,17.5648 286.5307,49.2168 358.5641,-88.65741 57.8784,-110.91843 -10.7523,-237.1176 50.4628,-349.30554 78.602,-144.09637 278.1226,-31.1347 376.1574,25.46297 112.3783,64.94966 224.4957,203.5062 376.8518,140.0463 138.1277,-57.59459 143.5172,-277.13889 82.176,-391.6667 -82.2849,-153.60277 -290.0663,-128.05565 -430.3241,-87.9629 38.8445,-111.6844 110.3311,-264.297366 239.1203,-286.342558 127.8869,-21.88777 253.1277,57.5504 364.3519,109.027735 99.2729,45.936873 273.8832,103.691473 345.6018,-21.759255 21.7832,-52.9461571 -43.0756,-96.617368 -99.7684,-132.638849 -56.6298,-35.969113 -116.6726,-70.404363 -179.6297,-93.981483 62.4033,-13.23696 121.8746,-19.724 178.7037,-20.37037 8.1185,-0.0944 16.3014,-0.15004 24.3056,0 118.0446,-0.36305 235.6765,-0.76492 354.3981,-1.15741 -111.4064,-2.24281 -308.1806,-3.17274 -557.6388,-3.24073 z"
     id="rect3704" /><path
     style="fill:url(#pattern2886);stroke:none"
     d="m 8647.9933,-196.59043 c -83.1527,-0.021 -172.0573,0.0944 -265.7408,0.23147 -416.8005,0.61278 -924.131,2.66316 -1412.5012,4.16667 -8.0044,-0.15005 -16.1873,-0.0944 -24.3055,0 -56.8292,0.64635 -116.3007,7.13339 -178.7041,20.37036 62.9573,23.57702 123,58.01238 179.63,93.981487 56.6928,36.02147 121.5518,79.6926917 99.7687,132.638943 -71.7185,125.45083 -246.3297,67.69644 -345.6026,21.759256 -111.2243,-51.477021 -236.4654,-130.9156 -364.3526,-109.027809 -128.7895,22.045224 -200.0448,174.658343 -238.8894,286.342633 140.2582,-40.09265 347.8085,-65.63977 430.0935,87.963 61.3415,114.52792 56.4147,334.07201 -81.7131,391.66659 -152.3567,63.45991 -264.7054,-75.09642 -377.0842,-140.04629 -98.0349,-56.59778 -297.7876,-169.55934 -376.3897,-25.46297 -61.2153,112.18815 7.6471,238.38732 -50.2315,349.30554 -72.0337,137.87425 -235.4629,106.22235 -358.3339,88.65745 28.7714,28.7815 55.9814,59.0027 88.1945,84.0278 58.8647,45.6223 132.3562,82.4856 208.7966,68.9815 65.5805,-13.0949 110.0751,-46.1583 157.6393,-91.2037 48.6029,-46.0314 68.616,-105.93861 137.9632,-126.3889 53.9018,-15.88585 114.0268,-7.04417 163.8893,17.5926 107.8245,53.3868 203.7326,170.7506 195.1393,296.0648 -4.4911,65.4851 -53.4132,116.7897 -104.1669,153.4722 -29.3591,21.2371 -87.2968,41.1349 -162.0374,50.4629 96.5134,133.8239 241.1583,129.6634 410.8804,115.2779 134.8334,-11.4582 283.4704,-94.6064 420.1399,-62.0371 152.0941,36.2525 103.4063,192.0957 11.1111,266.8982 -107.7828,87.3623 -252.5935,101.6943 -387.2694,90.5093 96.3454,48.8538 196.3536,91.2538 300.4637,120.6018 95.7285,27.0414 184.8586,39.6743 267.5931,39.8148 838.6343,7.5168 1255.6505,2.846 1959.9549,0.6946 -27.0955,-0.2245 -50.4626,-0.4438 -78.4722,-0.6946 -82.7343,-0.1406 -171.865,-12.7734 -267.5926,-39.8148 -104.1098,-29.348 -204.1179,-71.748 -300.463,-120.6018 134.6753,11.185 279.4863,-3.147 387.2685,-90.5093 92.2951,-74.8025 140.9825,-230.646 -11.1111,-266.8982 -136.669,-32.5693 -285.3064,50.5789 -420.1389,62.0371 -169.7216,14.3855 -314.3665,18.546 -410.8797,-115.2779 74.7406,-9.328 132.2152,-29.2258 161.5741,-50.4629 50.7536,-36.6825 99.9071,-87.9871 104.3981,-153.4722 8.5937,-125.3142 -87.5462,-242.678 -195.3703,-296.0648 -49.862,-24.63677 -109.5245,-33.47845 -163.426,-17.5926 -69.3471,20.45029 -89.36,80.3575 -137.9629,126.3889 -47.5641,45.0454 -92.0584,78.1088 -157.639,91.2037 -76.4404,13.5042 -150.3945,-23.3592 -209.2597,-68.9815 -32.2131,-25.0251 -59.4231,-55.2463 -88.1946,-84.0278 122.8716,17.5649 286.5321,49.2168 358.5655,-88.65745 57.8785,-110.91822 -10.7521,-237.11739 50.463,-349.30554 78.6019,-144.09637 278.1228,-31.13481 376.1574,25.46297 112.3781,64.94977 224.4962,203.5062 376.8518,140.04629 138.1275,-57.59458 143.5172,-277.13888 82.176,-391.66659 -82.2847,-153.60277 -290.0665,-128.05565 -430.3241,-87.963 38.8444,-111.68429 110.3314,-264.297409 239.1203,-286.342633 127.8866,-21.887791 253.128,57.550473 364.3519,109.027809 99.2726,45.937184 273.8834,103.691574 345.6018,-21.759256 21.7831,-52.9462304 -43.0758,-96.617452 -99.7684,-132.638922 -56.6297,-35.969108 -116.6726,-70.404468 -179.6297,-93.981488 62.4032,-13.23697 121.8747,-19.72402 178.7038,-20.37036 8.1182,-0.0944 16.3013,-0.15005 24.3055,0 118.0443,-0.36305 235.9085,-0.76503 354.63,-1.15741 -111.4067,-2.24282 -308.413,-3.17276 -557.8707,-3.24075 z"
     id="rect3680" /></g></svg>